<?xml version="1.0" encoding="utf-8"?>
<!-- Generator: Adobe Illustrator 25.4.1, SVG Export Plug-In . SVG Version: 6.00 Build 0)  -->
<svg version="1.1" id="Layer_1" xmlns="http://www.w3.org/2000/svg" xmlns:xlink="http://www.w3.org/1999/xlink" x="0px" y="0px"
	 viewBox="0 0 660.9 116.5" style="enable-background:new 0 0 660.9 116.5;" xml:space="preserve">
<style type="text/css">
	.st0{fill:#FFFFFF;}
	.st1{fill:#285D35;}
	.st2{display:none;opacity:0.2;fill:#1A602C;enable-background:new    ;}
	.st3{fill:#797979;}
</style>
<rect y="0" class="st0" width="660.9" height="116.5"/>
<g>
	<g>
		<g>
			<g>
				<g>
					<g>
						<path class="st1" d="M116.4,35H87.3V13h82.9v22h-29.1v65.4h-24.6V35H116.4z"/>
						<path class="st2" d="M8.9,57.2c0-30.7,17.9-43.6,46-43.7c10.7-0.1,7.9,0,27.3,0v22.1H57.8h-3.1c-16,0-22.1,7.7-22.1,21.9
							c0,15.7,4,23.6,21.8,23.6c12.6,0,18.3-3.2,18.3-11.4v-1.8H57.8V49h37.8v15.8c0,24.7-12.7,36.1-42.5,36.1
							C18.9,100.9,8.9,84.9,8.9,57.2z"/>
					</g>
				</g>
				<path class="st1" d="M72.3,74c0,2.8-2.8,4.1-5.3,4.1H38.3c-2.8,0-4.9-2.2-5.2-4.3V40.3c0-2.9,2.5-5.2,4.7-5.2h44.3V13H35.9
					c-8.1,0-14.9,2.5-19.8,7.1c-4.8,4.6-7.3,11.1-7.3,18.7v35.9c0,3.3,0.5,6.4,1.6,9.2c1.7,5.1,4.8,9.3,9,12.2
					c4.1,2.8,9.2,4.3,15,4.3l0,0l0,0H68c7.6,0,14.1-2.8,18.6-7.6c4.6-4.8,6.7-11.6,6.7-19.7c0-0.6,0-5.3,0-5.9V53.5V46H86H57.7v18.7
					h14.6V74z"/>
			</g>
		</g>
		<g>
			<path class="st3" d="M168.3,69.8h17.5v-18h8.2v18h17.6V78H194v18h-8.2V78h-17.5V69.8z"/>
		</g>
	</g>
	<g>
		<path class="st3" d="M278.3,100.8V74.3c0-4.6-0.6-7.1-2.1-8.5c-1.3-1.3-3.6-1.9-6.9-1.9c-3.7,0-6.8,0.9-8.7,1.4v35.5h-10.2V74.3
			c0-4.3-0.6-7-1.9-8.5c-1.2-1.3-3.4-2-6.6-2c-3.6,0-7.1,0.9-9.1,1.7v35.2h-10.2V56.5h8.1l2,5.9h0.6c0.9-1.2,4.1-4.8,4.5-5
			c1.7-0.8,5.7-1.7,9.6-1.7c4.6,0,7.4,0.6,9.5,2.1c1.6,1.3,2.5,2.8,3.2,4.5h0.6c0.9-1.3,4.2-4.7,4.6-4.9c1.7-0.9,6.2-1.7,10.2-1.7
			c4.4,0,7.2,0.8,9.2,2.5c2.9,2.5,3.8,6.8,3.8,12.5v30h-10.2V100.8z"/>
		<path class="st3" d="M330.2,100.8l-2-5.8h-0.6c-1.3,1.7-3.9,4.3-4.3,4.7c-1.7,1.1-6.1,1.9-10.2,1.9c-5.3,0-8.1-1.1-10.2-3.2
			c-1.9-2.1-2.9-5.6-2.9-9.2c0-7.1,3-9.9,5.5-11.2c4.3-2.3,13.5-3.6,22.7-4.4c0-2.7-0.4-5.8-1.6-7.3c-1.3-1.8-4.7-2.2-8.3-2.2
			c-5.2,0-11.5,1.1-15.2,1.7v-7.3c4.2-1.3,10.9-2.9,18.2-2.9c6,0,10.5,1.1,13.1,3.3c2.4,2.1,3.9,5.9,3.9,12.9V101h-8.1V100.8z
			 M328.2,80.2c-5.9,0.2-15.5,0.9-16.9,2.1c-0.9,0.8-1.4,2.3-1.4,4.8c0,2.2,0.6,3.9,1.5,4.9c1.1,0.9,3,1.5,6.4,1.5
			c4.2,0,8.2-0.7,10.4-1.3V80.2z"/>
		<path class="st3" d="M377.6,64h-13.7v22c0,6,1.7,7,6.7,7c2.5,0,6.5-0.3,8.2-0.6l-0.6,7.4c-3,0.8-6.7,1.6-11.5,1.6
			c-10,0-13-4.3-13-13.6V64h-6.6v-7.6h6.6v-7.8l10.1-1.9v9.7h15.4L377.6,64z"/>
		<path class="st3" d="M407.1,55.3c14.4,0,18.4,7.3,18.4,19v6.5h-29.8c0.2,8.1,2.4,12.3,13,12.3c6,0,11.8-0.9,15.3-1.3l-0.8,7.3
			c-4.3,1.3-10.3,2.6-16.6,2.6c-15.9,0-21.4-7.3-21.4-21.7C385.3,62.8,392.7,55.3,407.1,55.3z M395.9,73.8h19.4v-1.1
			c0-6.4-2.4-9.8-9.1-9.8C399,62.9,396.4,66,395.9,73.8z"/>
		<path class="st3" d="M444.8,56.5l2,6h0.6c1-1.3,3.9-4.5,4.6-4.9c1.5-1,4.6-2,8.6-2c1.8,0,3.2,0.1,4.4,0.2v9.8
			c-1.6-0.5-4.3-1.2-8.2-1.2c-3.7,0-7.4,0.9-10,2.5v33.8h-10.1V56.5H444.8z"/>
		<path class="st3" d="M482,46.8c-0.9,0.7-2.6,1-4.5,1c-2.3,0-3.6-0.5-4.5-1.2c-0.8-0.8-1.3-2.4-1.3-4.4c0-2.4,0.9-4,1.8-4.8
			c0.8-0.5,2.1-0.9,4.3-0.9c1.9,0,3.5,0.4,4.3,1c0.9,0.8,1.4,2.5,1.4,4.7C483.4,44.1,482.9,45.9,482,46.8z M472.4,100.8V56.5h10.1
			v44.3H472.4z"/>
		<path class="st3" d="M524.3,100.8l-2-5.8h-0.6c-1.3,1.7-3.9,4.3-4.3,4.7c-1.7,1.1-6.1,1.9-10.2,1.9c-5.3,0-8.1-1.1-10.2-3.2
			c-1.9-2.1-2.9-5.6-2.9-9.2c0-7.1,3-9.9,5.5-11.2c4.3-2.3,13.5-3.6,22.7-4.4c0-2.7-0.4-5.8-1.6-7.3c-1.3-1.8-4.7-2.2-8.3-2.2
			c-5.2,0-11.5,1.1-15.2,1.7v-7.3c4.2-1.3,10.9-2.9,18.2-2.9c6,0,10.5,1.1,13.1,3.3c2.4,2.1,3.9,5.9,3.9,12.9V101h-8.1V100.8z
			 M522.2,80.2c-5.9,0.2-15.5,0.9-16.9,2.1c-0.9,0.8-1.4,2.3-1.4,4.8c0,2.2,0.6,3.9,1.5,4.9c1.1,0.9,3,1.5,6.4,1.5
			c4.2,0,8.2-0.7,10.4-1.3V80.2z"/>
		<path class="st3" d="M555.9,36.8v50.9c0,4.5,1.7,5.9,5.1,5.9c2,0,3.7-0.2,5.2-0.6v7.3c-2.3,0.6-5.5,1.3-8.5,1.3
			c-8.6,0-11.8-4-11.8-13.3V36.8H555.9z"/>
		<path class="st3" d="M586.2,101.8c-5.1,0-11.1-0.9-14.4-1.7v-7.5c3.4,0.7,9.2,1.6,13.3,1.6c8.1,0,9.9-2,9.9-5.5
			c0-1.4-0.2-2.3-0.9-3c-1.3-1.3-3.8-2-8.3-3.2c-6.2-1.6-9.8-3.3-11.7-6.1c-1.3-1.9-1.8-4.1-1.8-7.3c0-8.1,4.4-13.8,17.7-13.8
			c5.8,0,10.9,0.7,13.7,1.3v7.7c-3.3-0.6-8.1-1.1-12.5-1.1c-7.7,0-9.2,1.8-9.2,5.2c0,1.2,0.2,2.1,0.9,2.8c0.9,1.2,3.1,2.2,7.8,3.4
			c5.5,1.4,9.3,2.6,11.5,4.7c1.7,1.8,2.5,4.2,2.5,8.2C604.6,97.1,599.9,101.8,586.2,101.8z"/>
	</g>
</g>
</svg>
